<svg xmlns="http://www.w3.org/2000/svg" xmlns:xlink="http://www.w3.org/1999/xlink" contentStyleType="text/css" data-diagram-type="DESCRIPTION" height="555px" preserveAspectRatio="none" style="width:1368px;height:555px;background:#FFFFFF;" version="1.1" viewBox="0 0 1368 555" width="1368px" zoomAndPan="magnify"><defs/><g><!--cluster Utenti--><g class="cluster" data-entity="Utenti" data-source-line="6" data-uid="ent0002" id="cluster_Utenti"><rect fill="none" height="476" rx="2.5" ry="2.5" style="stroke:#181818;stroke-width:1;" width="158.96" x="7" y="73"/><text fill="#000000" font-family="sans-serif" font-size="14" font-style="italic" lengthAdjust="spacing" textLength="55.8975" x="58.5313" y="87.9951">&#171;Attori&#187;</text><text fill="#000000" font-family="sans-serif" font-size="14" font-weight="bold" lengthAdjust="spacing" textLength="49.0137" x="61.9732" y="104.292">Utenti</text></g><!--cluster Sistema Interno--><g class="cluster" data-entity="Sistema Interno" data-source-line="15" data-uid="ent0007" id="cluster_Sistema Interno"><rect fill="none" height="174" rx="2.5" ry="2.5" style="stroke:#181818;stroke-width:1;" width="141.05" x="369.96" y="260"/><text fill="#000000" font-family="sans-serif" font-size="14" font-style="italic" lengthAdjust="spacing" textLength="105.8271" x="387.5714" y="274.9951">&#171;Applicazione&#187;</text><text fill="#000000" font-family="sans-serif" font-size="14" font-weight="bold" lengthAdjust="spacing" textLength="126.1641" x="377.403" y="291.292">Sistema Interno</text></g><!--cluster Sistemi Esterni--><g class="cluster" data-entity="Sistemi Esterni" data-source-line="22" data-uid="ent0010" id="cluster_Sistemi Esterni"><rect fill="none" height="387" rx="2.5" ry="2.5" style="stroke:#181818;stroke-width:1;" width="720.44" x="642.01" y="7"/><text fill="#000000" font-family="sans-serif" font-size="14" font-style="italic" lengthAdjust="spacing" textLength="94.3838" x="955.0381" y="21.9951">&#171;WebServer&#187;</text><text fill="#000000" font-family="sans-serif" font-size="14" font-weight="bold" lengthAdjust="spacing" textLength="119.417" x="942.5215" y="38.292">Sistemi Esterni</text></g><!--cluster WS--><g class="cluster" data-entity="WS" data-source-line="24" data-uid="ent0012" id="cluster_WS"><rect fill="none" height="234" rx="2.5" ry="2.5" style="stroke:#181818;stroke-width:1;" width="409.2" x="911.41" y="74"/><text fill="#000000" font-family="sans-serif" font-size="14" font-style="italic" lengthAdjust="spacing" textLength="69.3574" x="1081.3313" y="88.9951">&#171;Apache&#187;</text><text fill="#000000" font-family="sans-serif" font-size="14" font-weight="bold" lengthAdjust="spacing" textLength="91.8408" x="1070.0896" y="105.292">Web Server</text></g><!--entity Paziente--><g class="entity" data-entity="Paziente" data-source-line="7" data-uid="ent0003" id="entity_Paziente"><ellipse cx="86.4843" cy="132.35" fill="#F1F1F1" rx="8" ry="8" style="stroke:#181818;stroke-width:0.5;"/><path d="M86.4843,140.35 L86.4843,167.35 M73.4843,148.35 L99.4843,148.35 M86.4843,167.35 L73.4843,182.35 M86.4843,167.35 L99.4843,182.35" fill="none" style="stroke:#181818;stroke-width:0.5;"/><text fill="#000000" font-family="sans-serif" font-size="14" lengthAdjust="spacing" textLength="59.8486" x="56.56" y="196.8451">Paziente</text></g><!--entity Tecnico--><g class="entity" data-entity="Tecnico" data-source-line="8" data-uid="ent0004" id="entity_Tecnico"><ellipse cx="86.4819" cy="243.35" fill="#F1F1F1" rx="8" ry="8" style="stroke:#181818;stroke-width:0.5;"/><path d="M86.4819,251.35 L86.4819,278.35 M73.4819,259.35 L99.4819,259.35 M86.4819,278.35 L73.4819,293.35 M86.4819,278.35 L99.4819,293.35" fill="none" style="stroke:#181818;stroke-width:0.5;"/><text fill="#000000" font-family="sans-serif" font-size="14" lengthAdjust="spacing" textLength="126.9639" x="23" y="307.8451">Personale Tecnico</text></g><!--entity Medico--><g class="entity" data-entity="Medico" data-source-line="9" data-uid="ent0005" id="entity_Medico"><ellipse cx="86.4857" cy="354.35" fill="#F1F1F1" rx="8" ry="8" style="stroke:#181818;stroke-width:0.5;"/><path d="M86.4857,362.35 L86.4857,389.35 M73.4857,370.35 L99.4857,370.35 M86.4857,389.35 L73.4857,404.35 M86.4857,389.35 L99.4857,404.35" fill="none" style="stroke:#181818;stroke-width:0.5;"/><text fill="#000000" font-family="sans-serif" font-size="14" lengthAdjust="spacing" textLength="49.7314" x="61.62" y="418.8451">Medico</text></g><!--entity Infermiere--><g class="entity" data-entity="Infermiere" data-source-line="10" data-uid="ent0006" id="entity_Infermiere"><ellipse cx="86.4848" cy="465.35" fill="#F1F1F1" rx="8" ry="8" style="stroke:#181818;stroke-width:0.5;"/><path d="M86.4848,473.35 L86.4848,500.35 M73.4848,481.35 L99.4848,481.35 M86.4848,500.35 L73.4848,515.35 M86.4848,500.35 L99.4848,515.35" fill="none" style="stroke:#181818;stroke-width:0.5;"/><text fill="#000000" font-family="sans-serif" font-size="14" lengthAdjust="spacing" textLength="72.8096" x="50.08" y="529.8451">Infermiere</text></g><!--entity gui--><g class="entity" data-entity="gui" data-source-line="17" data-uid="ent0008" id="entity_gui"><rect fill="#F1F1F1" height="36.2969" rx="2.5" ry="2.5" style="stroke:#181818;stroke-width:0.5;" width="43.6113" x="418.18" y="381.85"/><text fill="#000000" font-family="sans-serif" font-size="14" lengthAdjust="spacing" textLength="23.6113" x="428.18" y="404.8451">Gui</text></g><!--entity DA--><g class="entity" data-entity="DA" data-source-line="18" data-uid="ent0009" id="entity_DA"><rect fill="#F1F1F1" height="36.2969" rx="2.5" ry="2.5" style="stroke:#181818;stroke-width:0.5;" width="106.0508" x="386.96" y="310.85"/><text fill="#000000" font-family="sans-serif" font-size="14" lengthAdjust="spacing" textLength="86.0508" x="396.96" y="333.8451">Data Access</text></g><!--entity HTTP--><g class="entity" data-entity="HTTP" data-source-line="23" data-uid="ent0011" id="entity_HTTP"><ellipse cx="667.01" cy="325" fill="#F1F1F1" rx="8" ry="8" style="stroke:#181818;stroke-width:0.5;"/><text fill="#000000" font-family="sans-serif" font-size="14" lengthAdjust="spacing" textLength="36.0732" x="648.9734" y="354.9951">HTTP</text></g><!--entity ApiMalattie--><g class="entity" data-entity="ApiMalattie" data-source-line="29" data-uid="ent0016" id="entity_ApiMalattie"><rect fill="#F1F1F1" height="36.2969" rx="2.5" ry="2.5" style="stroke:#181818;stroke-width:0.5;" width="161.1553" x="907.01" y="333.85"/><text fill="#000000" font-family="sans-serif" font-size="14" lengthAdjust="spacing" textLength="141.1553" x="917.01" y="356.8451">API Malattie/Sintomi</text></g><!--entity DBMalattie--><g class="entity" data-entity="DBMalattie" data-source-line="30" data-uid="ent0017" id="entity_DBMalattie"><path d="M1129.17,342.35 C1129.17,332.35 1237.8092,332.35 1237.8092,332.35 C1237.8092,332.35 1346.4483,332.35 1346.4483,342.35 L1346.4483,367.6469 C1346.4483,377.6469 1237.8092,377.6469 1237.8092,377.6469 C1237.8092,377.6469 1129.17,377.6469 1129.17,367.6469 L1129.17,342.35" fill="#F1F1F1" style="stroke:#181818;stroke-width:0.5;"/><path d="M1129.17,342.35 C1129.17,352.35 1237.8092,352.35 1237.8092,352.35 C1237.8092,352.35 1346.4483,352.35 1346.4483,342.35" fill="none" style="stroke:#181818;stroke-width:0.5;"/><text fill="#000000" font-family="sans-serif" font-size="14" lengthAdjust="spacing" textLength="197.2783" x="1139.17" y="369.3451">DB Esterno Malattie/Sintomi</text></g><!--entity auth--><g class="entity" data-entity="auth" data-source-line="25" data-uid="ent0013" id="entity_auth"><ellipse cx="987.5955" cy="251.85" fill="#F1F1F1" rx="12" ry="12" style="stroke:#181818;stroke-width:0.5;"/><line style="stroke:#181818;stroke-width:0.5;" x1="975.5955" x2="999.5955" y1="265.85" y2="265.85"/><text fill="#000000" font-family="sans-serif" font-size="14" lengthAdjust="spacing" textLength="104.3711" x="935.41" y="280.8451">Autenticazione</text></g><!--entity smail--><g class="entity" data-entity="smail" data-source-line="26" data-uid="ent0014" id="entity_smail"><ellipse cx="987.5925" cy="168.85" fill="#F1F1F1" rx="12" ry="12" style="stroke:#181818;stroke-width:0.5;"/><line style="stroke:#181818;stroke-width:0.5;" x1="975.5925" x2="999.5925" y1="182.85" y2="182.85"/><text fill="#000000" font-family="sans-serif" font-size="14" lengthAdjust="spacing" textLength="77.2051" x="948.99" y="197.8451">Mail server</text></g><!--entity dbApp--><g class="entity" data-entity="dbApp" data-source-line="27" data-uid="ent0015" id="entity_dbApp"><path d="M1179.01,247.35 C1179.01,237.35 1237.8118,237.35 1237.8118,237.35 C1237.8118,237.35 1296.6135,237.35 1296.6135,247.35 L1296.6135,272.6469 C1296.6135,282.6469 1237.8118,282.6469 1237.8118,282.6469 C1237.8118,282.6469 1179.01,282.6469 1179.01,272.6469 L1179.01,247.35" fill="#F1F1F1" style="stroke:#181818;stroke-width:0.5;"/><path d="M1179.01,247.35 C1179.01,257.35 1237.8118,257.35 1237.8118,257.35 C1237.8118,257.35 1296.6135,257.35 1296.6135,247.35" fill="none" style="stroke:#181818;stroke-width:0.5;"/><text fill="#000000" font-family="sans-serif" font-size="14" lengthAdjust="spacing" textLength="97.6035" x="1189.01" y="274.3451">Database app</text></g><!--link Paziente to DA--><g class="link" data-entity-1="Paziente" data-entity-2="DA" data-source-line="34" data-uid="lnk18" id="link_Paziente_DA"><path d="M116.65,170.36 C166.94,185.4 272.45,219.72 353.96,265 C377.22,277.92 396.6184,292.6996 413.1584,306.5396" fill="none" id="Paziente-to-DA" style="stroke:#181818;stroke-width:1;"/><polygon fill="#181818" points="417.76,310.39,413.4246,301.5467,413.9254,307.1813,408.2907,307.6821,417.76,310.39" style="stroke:#181818;stroke-width:1;"/><text fill="#000000" font-family="sans-serif" font-size="13" lengthAdjust="spacing" textLength="156.4634" x="189.96" y="189.0669">Prenota / Visualizza dati</text></g><!--link Tecnico to DA--><g class="link" data-entity-1="Tecnico" data-entity-2="DA" data-source-line="35" data-uid="lnk19" id="link_Tecnico_DA"><path d="M150.32,283.01 C217.76,293.76 317.7347,309.6865 380.7847,319.7265" fill="none" id="Tecnico-to-DA" style="stroke:#181818;stroke-width:1;"/><polygon fill="#181818" points="386.71,320.67,378.451,315.3045,381.7722,319.8837,377.193,323.2049,386.71,320.67" style="stroke:#181818;stroke-width:1;"/><text fill="#000000" font-family="sans-serif" font-size="13" lengthAdjust="spacing" textLength="142.9683" x="196.96" y="286.0669">Gestione prenotazioni</text></g><!--link Medico to DA--><g class="link" data-entity-1="Medico" data-entity-2="DA" data-source-line="36" data-uid="lnk20" id="link_Medico_DA"><path d="M111.82,381.2 C158.8,375.68 265.17,362.54 353.96,347 C364.52,345.15 369.8855,344.1709 380.6155,341.9409" fill="none" id="Medico-to-DA" style="stroke:#181818;stroke-width:1;"/><polygon fill="#181818" points="386.49,340.72,376.8644,338.635,381.5946,341.7374,378.4922,346.4676,386.49,340.72" style="stroke:#181818;stroke-width:1;"/><text fill="#000000" font-family="sans-serif" font-size="13" lengthAdjust="spacing" textLength="159.3325" x="188.46" y="343.0669">Accesso cartelle cliniche</text></g><!--link Infermiere to DA--><g class="link" data-entity-1="Infermiere" data-entity-2="DA" data-source-line="37" data-uid="lnk21" id="link_Infermiere_DA"><path d="M123.18,492.52 C180.64,486.54 293.31,466.27 353.96,398 C364.27,386.39 352.11,376 361.96,364 C368.58,355.94 372.1374,352.4294 381.4974,347.5594" fill="none" id="Infermiere-to-DA" style="stroke:#181818;stroke-width:1;"/><polygon fill="#181818" points="386.82,344.79,376.9898,345.3956,382.3845,347.0978,380.6823,352.4925,386.82,344.79" style="stroke:#181818;stroke-width:1;"/><text fill="#000000" font-family="sans-serif" font-size="13" lengthAdjust="spacing" textLength="170.2695" x="182.96" y="394.0669">Stato esami / info pazienti</text></g><!--link DA to HTTP--><g class="link" data-entity-1="DA" data-entity-2="HTTP" data-source-line="40" data-uid="lnk22" id="link_DA_HTTP"><path d="M493.46,328.07 C548.79,327.08 625.5009,325.7152 651.7309,325.2552" fill="none" id="DA-to-HTTP" style="stroke:#181818;stroke-width:1;stroke-dasharray:7.0,7.0;"/><polygon fill="#181818" points="657.73,325.15,648.6612,321.3084,652.7308,325.2377,648.8015,329.3072,657.73,325.15" style="stroke:#181818;stroke-width:1;"/><text fill="#000000" font-family="sans-serif" font-size="13" lengthAdjust="spacing" textLength="97.1382" x="528.01" y="322.0669">Richieste HTTP</text></g><!--link HTTP to DA--><g class="link" data-entity-1="HTTP" data-entity-2="DA" data-source-line="41" data-uid="lnk23" id="link_HTTP_DA"><path d="M657.66,333.19 C650.1,339.98 638.3,349.13 626.01,353 C582.61,366.68 536.8984,359.7354 499.2684,349.2154" fill="none" id="HTTP-to-DA" style="stroke:#181818;stroke-width:1;stroke-dasharray:7.0,7.0;"/><polygon fill="#181818" points="493.49,347.6,501.0807,353.8755,498.3054,348.9462,503.2346,346.1709,493.49,347.6" style="stroke:#181818;stroke-width:1;"/><text fill="#000000" font-family="sans-serif" font-size="13" lengthAdjust="spacing" textLength="93.0884" x="530.01" y="349.0669">Risposta HTTP</text></g><!--link HTTP to WS--><g class="link" data-entity-1="HTTP" data-entity-2="WS" data-source-line="44" data-uid="lnk24" id="link_HTTP_WS"><path d="M680.0126,311.3023 C707.2926,280.5623 796.4,185.24 895.41,137 C899.9263,134.7987 904.6858,132.8373 909.5635,131.09 C910.1732,130.8716 905.1135,132.6153 905.7266,132.4035" fill="none" id="HTTP-WS" style="stroke:#181818;stroke-width:1;"/><polygon fill="#181818" points="676.03,315.79,684.9956,311.7135,679.3488,312.0503,679.0121,306.4034,676.03,315.79" style="stroke:#181818;stroke-width:1;"/><polygon fill="#181818" points="911.3979,130.4447,901.5851,129.6021,906.6718,132.0771,904.1969,137.1638,911.3979,130.4447" style="stroke:#181818;stroke-width:1;"/><text fill="#000000" font-family="sans-serif" font-size="13" lengthAdjust="spacing" textLength="132.7549" x="725.51" y="145.0669">Accesso funzionalit&#224;</text></g><!--link HTTP to ApiMalattie--><g class="link" data-entity-1="HTTP" data-entity-2="ApiMalattie" data-source-line="45" data-uid="lnk25" id="link_HTTP_ApiMalattie"><path d="M682.1886,326.1968 C714.0386,328.8968 819.8514,337.8734 900.8014,344.7334" fill="none" id="HTTP-ApiMalattie" style="stroke:#181818;stroke-width:1;"/><polygon fill="#181818" points="676.21,325.69,684.84,330.4359,681.1921,326.1123,685.5157,322.4645,676.21,325.69" style="stroke:#181818;stroke-width:1;"/><polygon fill="#181818" points="906.78,345.24,898.1499,340.4943,901.7979,344.8178,897.4744,348.4657,906.78,345.24" style="stroke:#181818;stroke-width:1;"/><text fill="#000000" font-family="sans-serif" font-size="13" lengthAdjust="spacing" textLength="169.9521" x="707.01" y="325.0669">Richiesta malattie/sintomi</text></g><!--link ApiMalattie to DBMalattie--><g class="link" data-entity-1="ApiMalattie" data-entity-2="DBMalattie" data-source-line="48" data-uid="lnk26" id="link_ApiMalattie_DBMalattie"><path d="M1074.4996,353.0416 C1093.7696,353.2716 1102.6805,353.3762 1123.0005,353.6262" fill="none" id="ApiMalattie-DBMalattie" style="stroke:#181818;stroke-width:1;"/><polygon fill="#181818" points="1068.5,352.97,1077.4516,357.0771,1073.4996,353.0297,1077.5471,349.0777,1068.5,352.97" style="stroke:#181818;stroke-width:1;"/><polygon fill="#181818" points="1129,353.7,1120.0499,349.5896,1124.0004,353.6385,1119.9515,357.589,1129,353.7" style="stroke:#181818;stroke-width:1;"/></g><!--SRC=[RLD1Zfj04BppYXQNjGzUtrSM4Yj76nyiMOkJFRTn6xSM6CGCaTPHf7mZj_mbFybBqjC31blX1DCrtLLTHKad1yv0oyNPmP5RoXsREehiEzSDjbX1W_ax5fIvZvB0rx4kIfe0SbCrfgRQtKEY_Yh4NvoKEORLAdNEj9matoFCvGrsU66fKGJoXADuHwqrDKglFUKrvoO6jCFx1BYbu-t1fZvHMp6rClj753r0njPHXS0oeQqDpDAccO-qPaDz4-fpPTWq9UT2IpHvdhuzF5n52hsMQkC28DRofFZIiR8jEhulhT4Xf7bErYfadTwI9AiaHdgXmF192xg-Dpfar7wZDaaWK9lD8Vwyt-y2a-jT0K90wgotJ9LXVhvgyewu3uZJJitf5IiQEtU-mMoHIx1ZErl9WIAE8kg0be8yVSEcKT3n8AiKYNThI7SRs6A9pZ4jCt76L65bQSF3-Nthvtu7vlytry_NYxhHnM8HB5LD346XaAYX_Flpbn3qa6Z8ddmauWOyGMyjBE4hsmvBlbpGy-2eJzy8VH6x_CAW6UF0KOZaY0fs6yYnTLHAelEIfS-PeZ6h8pfpAFyYMHJJbnBQan53bICFiYOXyaljf1c2az-GHOVF0Spaopag2XReN8LAyyV799IVu5Ncim-R7aHwwijAuPLjOwpCq5e_L27NQNwDOxo0m3lgnoXivTL8t4Rjfwxsov5jkZ-_9w29tnDM2DLWiGqM3oocmV4aR5SAMhBH_pZAOTfKfupP-0S0]--></g></svg>